<svg xmlns="http://www.w3.org/2000/svg" width="1200" height="630" viewBox="0 0 1200 630"><defs><linearGradient id="b" x2="1" y2="1"><stop stop-color="#050c16"/><stop offset="1" stop-color="#0c2440"/></linearGradient><radialGradient id="g"><stop stop-color="#168bff" stop-opacity=".35"/><stop offset="1" stop-color="#168bff" stop-opacity="0"/></radialGradient></defs><rect width="1200" height="630" fill="url(#b)"/><circle cx="950" cy="180" r="330" fill="url(#g)"/><g stroke="#fff" stroke-opacity=".04"><path d="M0 90h1200M0 180h1200M0 270h1200M0 360h1200M0 450h1200M0 540h1200M120 0v630M240 0v630M360 0v630M480 0v630M600 0v630M720 0v630M840 0v630M960 0v630M1080 0v630"/></g><text x="100" y="285" fill="#fff" font-family="Arial,sans-serif" font-size="120" font-weight="800">Gerald<tspan fill="#168bff">.</tspan></text><text x="108" y="350" fill="#9aabc0" font-family="Arial,sans-serif" font-size="34">FULL-STACK WEB DEVELOPER</text><rect x="108" y="389" width="80" height="5" rx="3" fill="#168bff"/></svg>
