<svg xmlns="http://www.w3.org/2000/svg" width="720" height="450" viewBox="0 0 720 450"><defs><linearGradient id="a" x2="1" y2="1"><stop stop-color="#07111f"/><stop offset="1" stop-color="#182643"/></linearGradient><filter id="g"><feGaussianBlur stdDeviation="8"/></filter></defs><rect width="720" height="450" fill="url(#a)"/><g stroke="#315172" stroke-width="2"><path d="M205 143 334 217M205 306l129-77M515 140l-154 79M515 307l-154-78"/><path d="M360 225h245" stroke-dasharray="7 7"/></g><g fill="#168bff" opacity=".15" filter="url(#g)"><circle cx="348" cy="225" r="78"/><circle cx="168" cy="121" r="45"/><circle cx="560" cy="327" r="45"/></g><g><rect x="267" y="164" width="174" height="122" rx="18" fill="#10243b" stroke="#4ea5ff" stroke-opacity=".55"/><text x="354" y="213" text-anchor="middle" fill="#fff" font-family="Arial" font-size="18" font-weight="700">REST API</text><rect x="315" y="232" width="78" height="22" rx="11" fill="#168bff" opacity=".18"/><text x="354" y="247" text-anchor="middle" fill="#65b6ff" font-family="Arial" font-size="9">200 OK</text></g><g font-family="Arial"><rect x="92" y="82" width="145" height="82" rx="14" fill="#0f2035" stroke="#435c78"/><text x="164" y="116" text-anchor="middle" fill="#fff" font-size="12" font-weight="700">WEB APP</text><text x="164" y="138" text-anchor="middle" fill="#758ca5" font-size="8">CLIENT REQUESTS</text><rect x="92" y="268" width="145" height="82" rx="14" fill="#0f2035" stroke="#435c78"/><text x="164" y="302" text-anchor="middle" fill="#fff" font-size="12" font-weight="700">DATABASE</text><text x="164" y="324" text-anchor="middle" fill="#758ca5" font-size="8">PERSISTENCE</text><rect x="483" y="82" width="145" height="82" rx="14" fill="#0f2035" stroke="#435c78"/><text x="555" y="116" text-anchor="middle" fill="#fff" font-size="12" font-weight="700">SERVICE A</text><text x="555" y="138" text-anchor="middle" fill="#758ca5" font-size="8">INTERNAL</text><rect x="483" y="268" width="145" height="82" rx="14" fill="#0f2035" stroke="#435c78"/><text x="555" y="302" text-anchor="middle" fill="#fff" font-size="12" font-weight="700">SERVICE B</text><text x="555" y="324" text-anchor="middle" fill="#758ca5" font-size="8">THIRD-PARTY</text></g><g fill="#4ea5ff"><circle cx="205" cy="143" r="5"/><circle cx="205" cy="306" r="5"/><circle cx="515" cy="140" r="5"/><circle cx="515" cy="307" r="5"/></g></svg>
