<svg xmlns="http://www.w3.org/2000/svg" width="720" height="450" viewBox="0 0 720 450"><defs><linearGradient id="a"><stop stop-color="#19152c"/><stop offset="1" stop-color="#39245c"/></linearGradient></defs><rect width="720" height="450" fill="url(#a)"/><circle cx="85" cy="75" r="150" fill="#8b5cf6" opacity=".12"/><rect x="62" y="55" width="596" height="340" rx="18" fill="#0f1729" stroke="#bcb0e0" stroke-opacity=".2"/><rect x="62" y="55" width="596" height="48" rx="18" fill="#161d31"/><text x="88" y="85" fill="#eeeaff" font-family="Arial" font-size="13" font-weight="700">PEOPLE / OVERVIEW</text><rect x="88" y="126" width="355" height="100" rx="12" fill="#171f34"/><circle cx="129" cy="176" r="24" fill="#8b5cf6"/><circle cx="129" cy="168" r="8" fill="#d9ceff"/><path d="M113 194c3-13 28-13 32 0" fill="#d9ceff"/><text x="168" y="162" fill="#8798ad" font-family="Arial" font-size="9">TOTAL EMPLOYEES</text><text x="168" y="196" fill="#fff" font-family="Arial" font-size="29" font-weight="700">248</text><path d="M273 194c25-36 42 8 70-19s47 7 76-26" fill="none" stroke="#9c78ff" stroke-width="4"/><rect x="458" y="126" width="174" height="100" rx="12" fill="#171f34"/><text x="478" y="153" fill="#8798ad" font-family="Arial" font-size="9">ATTENDANCE</text><circle cx="505" cy="187" r="18" fill="none" stroke="#2d3a52" stroke-width="8"/><path d="M505 169a18 18 0 1 1-13 30" fill="none" stroke="#5fd6a4" stroke-width="8"/><text x="536" y="194" fill="#fff" font-family="Arial" font-size="20" font-weight="700">92%</text><rect x="88" y="243" width="544" height="125" rx="12" fill="#171f34"/><g fill="#75859c" font-family="Arial" font-size="8"><text x="108" y="269">EMPLOYEE</text><text x="326" y="269">DEPARTMENT</text><text x="487" y="269">STATUS</text></g><g stroke="#2a354a"><path d="M108 282h501M108 319h501"/></g><g fill="#e1e7ef" font-family="Arial" font-size="9"><text x="108" y="306">Alex Morgan</text><text x="108" y="343">Jamie Cruz</text></g><g fill="#8999ac" font-family="Arial" font-size="9"><text x="326" y="306">Engineering</text><text x="326" y="343">Operations</text></g><g fill="#62d9a8" font-family="Arial" font-size="8"><text x="487" y="306">ACTIVE</text><text x="487" y="343">ACTIVE</text></g></svg>
